Metropolis-Regular.ufo
<glyph name="numbersign" format="2">
	<advance width="690"/>
	<unicode hex="0023"/>
	<outline>
		<contour>
			<point x="289" y="687" type="line"/>
			<point x="116" y="0" type="line"/>
			<point x="182" y="0" type="line"/>
			<point x="355" y="687" type="line"/>
		</contour>
		<contour>
			<point x="505" y="687" type="line"/>
			<point x="332" y="0" type="line"/>
			<point x="398" y="0" type="line"/>
			<point x="571" y="687" type="line"/>
		</contour>
		<contour>
			<point x="63" y="240" type="line"/>
			<point x="48" y="179" type="line"/>
			<point x="561" y="179" type="line"/>
			<point x="576" y="240" type="line"/>
		</contour>
		<contour>
			<point x="129" y="507" type="line"/>
			<point x="114" y="446" type="line"/>
			<point x="628" y="446" type="line"/>
			<point x="643" y="507" type="line"/>
		</contour>
	</outline>
</glyph>
<glyph name="dollar" format="2">
	<advance width="650"/>
	<unicode hex="0024"/>
	<anchor x="328" y="687" name="top"/>
	<anchor x="329" y="0" name="bottom"/>
	<outline>
		<contour>
			<point x="294" y="759" type="line"/>
			<point x="294" y="-74" type="line"/>
			<point x="372" y="-74" type="line"/>
			<point x="372" y="759" type="line"/>
		</contour>
		<contour>
			<point x="338" y="-11" type="curve"/>
			<point x="338" y="-11" type="line"/>
			<point x="498" y="-11"/>
			<point x="580" y="78"/>
			<point x="580" y="187" type="curve"/>
			<point x="580" y="308"/>
			<point x="486" y="355"/>
			<point x="355" y="386" type="curve"/>
			<point x="238" y="414"/>
			<point x="170" y="439"/>
			<point x="170" y="510" type="curve"/>
			<point x="170" y="573"/>
			<point x="232" y="629"/>
			<point x="317" y="629" type="curve"/>
			<point x="389" y="629"/>
			<point x="457" y="596"/>
			<point x="514" y="541" type="curve"/>
			<point x="562" y="602" type="line"/>
			<point x="499" y="660"/>
			<point x="423" y="700"/>
			<point x="321" y="700" type="curve"/>
			<point x="189" y="700"/>
			<point x="91" y="614"/>
			<point x="91" y="504" type="curve"/>
			<point x="91" y="385"/>
			<point x="178" y="342"/>
			<point x="316" y="310" type="curve"/>
			<point x="436" y="282"/>
			<point x="501" y="253"/>
			<point x="501" y="180" type="curve"/>
			<point x="501" y="118"/>
			<point x="447" y="60"/>
			<point x="341" y="60" type="curve"/>
			<point x="245" y="60"/>
			<point x="174" y="101"/>
			<point x="116" y="159" type="curve"/>
			<point x="67" y="98" type="line"/>
			<point x="136" y="30"/>
			<point x="225" y="-11"/>
		</contour>
	</outline>
</glyph>
<glyph name="percent" format="2">
	<advance width="833"/>
	<unicode hex="0025"/>
	<outline>
		<contour>
			<point x="615" y="687" type="line"/>
			<point x="145" y="0" type="line"/>
			<point x="221" y="0" type="line"/>
			<point x="691" y="687" type="line"/>
		</contour>
		<contour>
			<point x="612" y="-10" type="curve"/>
			<point x="612" y="-10" type="line"/>
			<point x="705" y="-10"/>
			<point x="772" y="65"/>
			<point x="772" y="163" type="curve"/>
			<point x="772" y="256"/>
			<point x="708" y="334"/>
			<point x="613" y="334" type="curve"/>
			<point x="518" y="334"/>
			<point x="453" y="256"/>
			<point x="453" y="162" type="curve"/>
			<point x="453" y="64"/>
			<point x="520" y="-10"/>
		</contour>
		<contour>
			<point x="613" y="44" type="curve"/>
			<point x="613" y="44" type="line"/>
			<point x="556" y="44"/>
			<point x="516" y="95"/>
			<point x="516" y="163" type="curve"/>
			<point x="516" y="228"/>
			<point x="555" y="280"/>
			<point x="612" y="280" type="curve"/>
			<point x="668" y="280"/>
			<point x="709" y="229"/>
			<point x="709" y="162" type="curve"/>
			<point x="709" y="94"/>
			<point x="670" y="44"/>
		</contour>
		<contour>
			<point x="220" y="349" type="curve"/>
			<point x="220" y="349" type="line"/>
			<point x="314" y="349"/>
			<point x="380" y="424"/>
			<point x="380" y="521" type="curve"/>
			<point x="380" y="616"/>
			<point x="316" y="693"/>
			<point x="221" y="693" type="curve"/>
			<point x="128" y="693"/>
			<point x="61" y="618"/>
			<point x="61" y="519" type="curve"/>
			<point x="61" y="426"/>
			<point x="125" y="349"/>
		</contour>
		<contour>
			<point x="221" y="403" type="curve"/>
			<point x="221" y="403" type="line"/>
			<point x="166" y="403"/>
			<point x="124" y="454"/>
			<point x="124" y="520" type="curve"/>
			<point x="124" y="589"/>
			<point x="164" y="639"/>
			<point x="220" y="639" type="curve"/>
			<point x="276" y="639"/>
			<point x="317" y="588"/>
			<point x="317" y="520" type="curve"/>
			<point x="317" y="453"/>
			<point x="277" y="403"/>
		</contour>
	</outline>
</glyph>
<glyph name="parenleft" format="2">
	<advance width="350"/>
	<unicode hex="0028"/>
	<outline>
		<contour>
			<point x="263" y="-170" type="curve"/>
			<point x="263" y="-170" type="line"/>
			<point x="303" y="-127" type="line"/>
			<point x="194" y="-16"/>
			<point x="134" y="102"/>
			<point x="134" y="265" type="curve"/>
			<point x="134" y="429"/>
			<point x="194" y="546"/>
			<point x="303" y="658" type="curve"/>
			<point x="263" y="700" type="line"/>
			<point x="129" y="588"/>
			<point x="54" y="438"/>
			<point x="54" y="265" type="curve"/>
			<point x="54" y="93"/>
			<point x="129" y="-58"/>
		</contour>
	</outline>
</glyph>
<glyph name="asterisk" format="2">
	<advance width="398"/>
	<unicode hex="002A"/>
	<outline>
		<contour>
			<point x="199" y="376" type="curve"/>
			<point x="199" y="376" type="line"/>
			<point x="213" y="376"/>
			<point x="224" y="386"/>
			<point x="224" y="398" type="curve"/>
			<point x="224" y="440"/>
			<point x="213" y="481"/>
			<point x="208" y="523" type="curve"/>
			<point x="242" y="498"/>
			<point x="272" y="468"/>
			<point x="308" y="447" type="curve"/>
			<point x="318" y="441"/>
			<point x="333" y="446"/>
			<point x="340" y="458" type="curve"/>
			<point x="347" y="470"/>
			<point x="343" y="484"/>
			<point x="333" y="490" type="curve"/>
			<point x="297" y="511"/>
			<point x="256" y="522"/>
			<point x="217" y="539" type="curve"/>
			<point x="256" y="556"/>
			<point x="297" y="567"/>
			<point x="333" y="588" type="curve"/>
			<point x="343" y="594"/>
			<point x="347" y="608"/>
			<point x="340" y="620" type="curve"/>
			<point x="333" y="632"/>
			<point x="318" y="637"/>
			<point x="308" y="631" type="curve"/>
			<point x="272" y="610"/>
			<point x="242" y="580"/>
			<point x="208" y="555" type="curve"/>
			<point x="213" y="597"/>
			<point x="224" y="638"/>
			<point x="224" y="680" type="curve"/>
			<point x="224" y="692"/>
			<point x="213" y="702"/>
			<point x="199" y="702" type="curve"/>
			<point x="185" y="702"/>
			<point x="174" y="692"/>
			<point x="174" y="680" type="curve"/>
			<point x="174" y="638"/>
			<point x="185" y="597"/>
			<point x="190" y="555" type="curve"/>
			<point x="156" y="580"/>
			<point x="126" y="610"/>
			<point x="90" y="631" type="curve"/>
			<point x="80" y="637"/>
			<point x="65" y="632"/>
			<point x="58" y="620" type="curve"/>
			<point x="51" y="608"/>
			<point x="55" y="594"/>
			<point x="65" y="588" type="curve"/>
			<point x="101" y="567"/>
			<point x="142" y="556"/>
			<point x="181" y="539" type="curve"/>
			<point x="142" y="522"/>
			<point x="101" y="511"/>
			<point x="65" y="490" type="curve"/>
			<point x="55" y="484"/>
			<point x="51" y="470"/>
			<point x="58" y="458" type="curve"/>
			<point x="65" y="446"/>
			<point x="80" y="441"/>
			<point x="90" y="447" type="curve"/>
			<point x="126" y="468"/>
			<point x="156" y="498"/>
			<point x="190" y="523" type="curve"/>
			<point x="185" y="481"/>
			<point x="174" y="440"/>
			<point x="174" y="398" type="curve"/>
			<point x="174" y="386"/>
			<point x="185" y="376"/>
		</contour>
	</outline>
</glyph>
<glyph name="hyphen" format="2">
	<advance width="355"/>
	<unicode hex="002D"/>
	<outline>
		<contour>
			<point x="48" y="308" type="line"/>
			<point x="48" y="235" type="line"/>
			<point x="307" y="235" type="line"/>
			<point x="307" y="308" type="line"/>
		</contour>
	</outline>
</glyph>
<glyph name="one" format="2">
	<advance width="357"/>
	<unicode hex="0031"/>
	<outline>
		<contour>
			<point x="201" y="592" type="line"/>
			<point x="201" y="0" type="line"/>
			<point x="279" y="0" type="line"/>
			<point x="279" y="687" type="line"/>
			<point x="216" y="687" type="line"/>
			<point x="47" y="572" type="line"/>
			<point x="81" y="514" type="line"/>
		</contour>
	</outline>
</glyph>
<glyph name="six" format="2">
	<advance width="611"/>
	<unicode hex="0036"/>
	<outline>
		<contour>
			<point x="317" y="-12" type="curve"/>
			<point x="317" y="-12" type="line"/>
			<point x="460" y="-12"/>
			<point x="559" y="88"/>
			<point x="559" y="215" type="curve"/>
			<point x="559" y="351"/>
			<point x="454" y="429"/>
			<point x="329" y="429" type="curve"/>
			<point x="240" y="429"/>
			<point x="163" y="382"/>
			<point x="123" y="303" type="curve"/>
			<point x="140" y="203" type="line"/>
			<point x="144" y="296"/>
			<point x="217" y="362"/>
			<point x="315" y="362" type="curve"/>
			<point x="407" y="362"/>
			<point x="480" y="305"/>
			<point x="480" y="211" type="curve"/>
			<point x="480" y="135"/>
			<point x="419" y="55"/>
			<point x="316" y="55" type="curve"/>
			<point x="191" y="55"/>
			<point x="135" y="181"/>
			<point x="135" y="333" type="curve"/>
			<point x="135" y="498"/>
			<point x="222" y="628"/>
			<point x="332" y="628" type="curve"/>
			<point x="398" y="628"/>
			<point x="443" y="598"/>
			<point x="486" y="556" type="curve"/>
			<point x="529" y="617" type="line"/>
			<point x="478" y="666"/>
			<point x="418" y="699"/>
			<point x="334" y="699" type="curve"/>
			<point x="178" y="699"/>
			<point x="56" y="538"/>
			<point x="56" y="333" type="curve"/>
			<point x="56" y="139"/>
			<point x="131" y="-12"/>
		</contour>
	</outline>
</glyph>
<glyph name="eight" format="2">
	<advance width="608"/>
	<unicode hex="0038"/>
	<outline>
		<contour>
			<point x="304" y="-12" type="curve"/>
			<point x="304" y="-12" type="line"/>
			<point x="445" y="-12"/>
			<point x="555" y="63"/>
			<point x="555" y="180" type="curve"/>
			<point x="555" y="266"/>
			<point x="487" y="327"/>
			<point x="404" y="355" type="curve"/>
			<point x="475" y="381"/>
			<point x="538" y="432"/>
			<point x="538" y="516" type="curve"/>
			<point x="538" y="629"/>
			<point x="427" y="699"/>
			<point x="304" y="699" type="curve"/>
			<point x="185" y="699"/>
			<point x="71" y="631"/>
			<point x="71" y="517" type="curve"/>
			<point x="71" y="438"/>
			<point x="127" y="385"/>
			<point x="205" y="355" type="curve"/>
			<point x="121" y="328"/>
			<point x="53" y="266"/>
			<point x="53" y="180" type="curve"/>
			<point x="53" y="64"/>
			<point x="162" y="-12"/>
		</contour>
		<contour>
			<point x="304" y="59" type="curve"/>
			<point x="304" y="59" type="line"/>
			<point x="209" y="59"/>
			<point x="132" y="110"/>
			<point x="132" y="185" type="curve"/>
			<point x="132" y="268"/>
			<point x="233" y="316"/>
			<point x="304" y="318" type="curve"/>
			<point x="376" y="316"/>
			<point x="476" y="268"/>
			<point x="476" y="185" type="curve"/>
			<point x="476" y="110"/>
			<point x="399" y="59"/>
		</contour>
		<contour>
			<point x="304" y="386" type="curve"/>
			<point x="304" y="386" type="line"/>
			<point x="239" y="390"/>
			<point x="150" y="429"/>
			<point x="150" y="509" type="curve"/>
			<point x="150" y="578"/>
			<point x="218" y="628"/>
			<point x="304" y="628" type="curve"/>
			<point x="390" y="628"/>
			<point x="459" y="578"/>
			<point x="459" y="509" type="curve"/>
			<point x="459" y="431"/>
			<point x="371" y="390"/>
		</contour>
	</outline>
</glyph>
<glyph name="colon" format="2">
	<advance width="220"/>
	<unicode hex="003A"/>
	<outline>
		<contour>
			<point x="111" y="403" type="curve"/>
			<point x="111" y="403" type="line"/>
			<point x="140" y="403"/>
			<point x="164" y="428"/>
			<point x="164" y="458" type="curve"/>
			<point x="164" y="486"/>
			<point x="140" y="511"/>
			<point x="111" y="511" type="curve"/>
			<point x="80" y="511"/>
			<point x="56" y="486"/>
			<point x="56" y="458" type="curve"/>
			<point x="56" y="428"/>
			<point x="80" y="403"/>
		</contour>
		<contour>
			<point x="111" y="-12" type="curve"/>
			<point x="111" y="-12" type="line"/>
			<point x="140" y="-12"/>
			<point x="164" y="13"/>
			<point x="164" y="43" type="curve"/>
			<point x="164" y="71"/>
			<point x="140" y="96"/>
			<point x="111" y="96" type="curve"/>
			<point x="80" y="96"/>
			<point x="56" y="71"/>
			<point x="56" y="43" type="curve"/>
			<point x="56" y="13"/>
			<point x="80" y="-12"/>
		</contour>
	</outline>
</glyph>
<glyph name="semicolon" format="2">
	<advance width="225"/>
	<unicode hex="003B"/>
	<outline>
		<contour>
			<point x="58" y="-105" type="curve"/>
			<point x="95" y="-133" type="line"/>
			<point x="155" y="-58"/>
			<point x="172" y="-24"/>
			<point x="172" y="16" type="curve"/>
			<point x="172" y="62"/>
			<point x="149" y="96"/>
			<point x="111" y="96" type="curve"/>
			<point x="79" y="96"/>
			<point x="56" y="71"/>
			<point x="56" y="43" type="curve"/>
			<point x="56" y="13"/>
			<point x="80" y="-12"/>
			<point x="110" y="-12" type="curve"/>
			<point x="102" y="-43"/>
			<point x="85" y="-74"/>
		</contour>
		<contour>
			<point x="112" y="403" type="curve"/>
			<point x="112" y="403" type="line"/>
			<point x="141" y="403"/>
			<point x="165" y="428"/>
			<point x="165" y="458" type="curve"/>
			<point x="165" y="486"/>
			<point x="141" y="511"/>
			<point x="112" y="511" type="curve"/>
			<point x="81" y="511"/>
			<point x="57" y="486"/>
			<point x="57" y="458" type="curve"/>
			<point x="57" y="428"/>
			<point x="81" y="403"/>
		</contour>
	</outline>
</glyph>
<glyph name="less" format="2">
	<advance width="582"/>
	<unicode hex="003C"/>
	<outline>
		<contour>
			<point x="60" y="314" type="line"/>
			<point x="515" y="88" type="line"/>
			<point x="515" y="159" type="line"/>
			<point x="134" y="344" type="line"/>
			<point x="515" y="529" type="line"/>
			<point x="515" y="599" type="line"/>
			<point x="60" y="373" type="line"/>
		</contour>
	</outline>
</glyph>
<glyph name="question" format="2">
	<advance width="532"/>
	<unicode hex="003F"/>
	<outline>
		<contour>
			<point x="203" y="380" type="curve"/>
			<point x="203" y="193" type="line"/>
			<point x="282" y="193" type="line"/>
			<point x="282" y="321" type="line"/>
			<point x="399" y="346"/>
			<point x="482" y="427"/>
			<point x="482" y="516" type="curve"/>
			<point x="482" y="618"/>
			<point x="399" y="699"/>
			<point x="272" y="699" type="curve"/>
			<point x="171" y="699"/>
			<point x="99" y="650"/>
			<point x="46" y="584" type="curve"/>
			<point x="97" y="533" type="line"/>
			<point x="141" y="587"/>
			<point x="193" y="628"/>
			<point x="268" y="628" type="curve"/>
			<point x="352" y="628"/>
			<point x="403" y="570"/>
			<point x="403" y="509" type="curve"/>
			<point x="403" y="444"/>
			<point x="320" y="390"/>
		</contour>
		<contour>
			<point x="242" y="-12" type="curve"/>
			<point x="242" y="-12" type="line"/>
			<point x="271" y="-12"/>
			<point x="295" y="13"/>
			<point x="295" y="43" type="curve"/>
			<point x="295" y="71"/>
			<point x="271" y="96"/>
			<point x="242" y="96" type="curve"/>
			<point x="211" y="96"/>
			<point x="187" y="71"/>
			<point x="187" y="43" type="curve"/>
			<point x="187" y="13"/>
			<point x="211" y="-12"/>
		</contour>
	</outline>
</glyph>
<glyph name="at" format="2">
	<advance width="919"/>
	<unicode hex="0040"/>
	<outline>
		<contour>
			<point x="445" y="-116" type="curve"/>
			<point x="445" y="-116" type="line"/>
			<point x="536" y="-116"/>
			<point x="604" y="-96"/>
			<point x="681" y="-47" type="curve"/>
			<point x="663" y="-20" type="line"/>
			<point x="590" y="-64"/>
			<point x="529" y="-81"/>
			<point x="447" y="-81" type="curve"/>
			<point x="259" y="-81"/>
			<point x="101" y="75"/>
			<point x="101" y="260" type="curve"/>
			<point x="101" y="466"/>
			<point x="274" y="639"/>
			<point x="479" y="639" type="curve"/>
			<point x="664" y="639"/>
			<point x="820" y="493"/>
			<point x="820" y="319" type="curve"/>
			<point x="820" y="179"/>
			<point x="751" y="125"/>
			<point x="696" y="125" type="curve"/>
			<point x="656" y="125"/>
			<point x="630" y="149"/>
			<point x="630" y="191" type="curve"/>
			<point x="630" y="216"/>
			<point x="652" y="322"/>
			<point x="683" y="481" type="curve"/>
			<point x="616" y="486" type="line"/>
			<point x="603" y="420" type="line"/>
			<point x="581" y="463"/>
			<point x="537" y="501"/>
			<point x="466" y="501" type="curve"/>
			<point x="350" y="501"/>
			<point x="233" y="391"/>
			<point x="233" y="251" type="curve"/>
			<point x="233" y="147"/>
			<point x="303" y="78"/>
			<point x="399" y="78" type="curve"/>
			<point x="468" y="78"/>
			<point x="524" y="116"/>
			<point x="561" y="164" type="curve"/>
			<point x="572" y="111"/>
			<point x="614" y="78"/>
			<point x="676" y="78" type="curve"/>
			<point x="764" y="78"/>
			<point x="856" y="156"/>
			<point x="856" y="319" type="curve"/>
			<point x="856" y="512"/>
			<point x="685" y="675"/>
			<point x="481" y="675" type="curve"/>
			<point x="254" y="675"/>
			<point x="63" y="485"/>
			<point x="63" y="259" type="curve"/>
			<point x="63" y="55"/>
			<point x="238" y="-116"/>
		</contour>
		<contour>
			<point x="417" y="137" type="curve"/>
			<point x="417" y="137" type="line"/>
			<point x="349" y="137"/>
			<point x="305" y="184"/>
			<point x="305" y="255" type="curve"/>
			<point x="305" y="355"/>
			<point x="383" y="442"/>
			<point x="475" y="442" type="curve"/>
			<point x="554" y="442"/>
			<point x="589" y="391"/>
			<point x="581" y="311" type="curve"/>
			<point x="571" y="214"/>
			<point x="511" y="137"/>
		</contour>
	</outline>
</glyph>
<glyph name="A" format="2">
	<advance width="785"/>
	<unicode hex="0041"/>
	<guideline x="393" y="308" angle="90"/>
	<anchor x="393" y="687" name="top"/>
	<anchor x="738" y="0" name="bottom"/>
	<outline>
		<contour>
			<point x="350" y="687" type="line"/>
			<point x="653" y="0" type="line"/>
			<point x="738" y="0" type="line"/>
			<point x="435" y="687" type="line"/>
		</contour>
		<contour>
			<point x="180" y="230" type="line"/>
			<point x="180" y="156" type="line"/>
			<point x="599" y="156" type="line"/>
			<point x="599" y="230" type="line"/>
		</contour>
		<contour>
			<point x="350" y="687" type="line"/>
			<point x="47" y="0" type="line"/>
			<point x="132" y="0" type="line"/>
			<point x="435" y="687" type="line"/>
		</contour>
	</outline>
</glyph>
<glyph name="C" format="2">
	<advance width="701"/>
	<unicode hex="0043"/>
	<anchor x="406" y="687" name="top"/>
	<anchor x="406" y="0" name="bottom"/>
	<outline>
		<contour>
			<point x="406" y="-12" type="curve"/>
			<point x="406" y="-12" type="line"/>
			<point x="501" y="-12"/>
			<point x="589" y="29"/>
			<point x="653" y="93" type="curve"/>
			<point x="600" y="147" type="line"/>
			<point x="550" y="94"/>
			<point x="481" y="60"/>
			<point x="406" y="60" type="curve"/>
			<point x="258" y="60"/>
			<point x="133" y="190"/>
			<point x="133" y="344" type="curve"/>
			<point x="133" y="497"/>
			<point x="258" y="627"/>
			<point x="406" y="627" type="curve"/>
			<point x="481" y="627"/>
			<point x="550" y="593"/>
			<point x="600" y="540" type="curve"/>
			<point x="653" y="594" type="line"/>
			<point x="589" y="659"/>
			<point x="501" y="699"/>
			<point x="406" y="699" type="curve"/>
			<point x="216" y="699"/>
			<point x="54" y="537"/>
			<point x="54" y="344" type="curve"/>
			<point x="54" y="151"/>
			<point x="216" y="-12"/>
		</contour>
	</outline>
</glyph>
<glyph name="E" format="2">
	<advance width="625"/>
	<unicode hex="0045"/>
	<anchor x="78" y="687" name="ae_upper"/>
	<anchor x="571" y="0" name="bottom"/>
	<anchor x="325" y="687" name="top"/>
	<outline>
		<contour>
			<point x="78" y="687" type="line"/>
			<point x="78" y="0" type="line"/>
			<point x="571" y="0" type="line"/>
			<point x="571" y="74" type="line"/>
			<point x="137" y="74" type="line"/>
			<point x="157" y="54" type="line"/>
			<point x="157" y="333" type="line"/>
			<point x="137" y="313" type="line"/>
			<point x="530" y="313" type="line"/>
			<point x="530" y="387" type="line"/>
			<point x="137" y="387" type="line"/>
			<point x="157" y="367" type="line"/>
			<point x="157" y="633" type="line"/>
			<point x="137" y="613" type="line"/>
			<point x="571" y="613" type="line"/>
			<point x="571" y="687" type="line"/>
		</contour>
	</outline>
</glyph>
<glyph name="G" format="2">
	<advance width="733"/>
	<unicode hex="0047"/>
	<anchor x="406" y="687" name="top"/>
	<anchor x="406" y="0" name="bottom"/>
	<outline>
		<contour>
			<point x="406" y="-12" type="curve"/>
			<point x="406" y="-12" type="line"/>
			<point x="501" y="-12"/>
			<point x="609" y="29"/>
			<point x="673" y="93" type="curve"/>
			<point x="620" y="147" type="line"/>
			<point x="570" y="94"/>
			<point x="481" y="60"/>
			<point x="406" y="60" type="curve"/>
			<point x="258" y="60"/>
			<point x="133" y="190"/>
			<point x="133" y="344" type="curve"/>
			<point x="133" y="497"/>
			<point x="258" y="627"/>
			<point x="406" y="627" type="curve"/>
			<point x="481" y="627"/>
			<point x="570" y="593"/>
			<point x="620" y="540" type="curve"/>
			<point x="673" y="594" type="line"/>
			<point x="609" y="659"/>
			<point x="501" y="699"/>
			<point x="406" y="699" type="curve"/>
			<point x="216" y="699"/>
			<point x="54" y="537"/>
			<point x="54" y="344" type="curve"/>
			<point x="54" y="151"/>
			<point x="216" y="-12"/>
		</contour>
		<contour>
			<point x="595" y="329" type="line"/>
			<point x="595" y="93" type="line"/>
			<point x="673" y="93" type="line"/>
			<point x="673" y="362" type="line"/>
			<point x="398" y="362" type="line"/>
			<point x="398" y="288" type="line"/>
			<point x="627" y="288" type="line"/>
		</contour>
	</outline>
</glyph>
<glyph name="L" format="2">
	<advance width="580"/>
	<unicode hex="004C"/>
	<anchor x="120" y="687" name="top"/>
	<outline>
		<contour>
			<point x="78" y="687" type="line"/>
			<point x="78" y="0" type="line"/>
			<point x="531" y="0" type="line"/>
			<point x="531" y="74" type="line"/>
			<point x="133" y="74" type="line"/>
			<point x="156" y="50" type="line"/>
			<point x="156" y="687" type="line"/>
		</contour>
	</outline>
</glyph>
<glyph name="N" format="2">
	<advance width="738"/>
	<unicode hex="004E"/>
	<anchor x="369" y="687" name="top"/>
	<anchor x="369" y="0" name="bottom"/>
	<outline>
		<contour>
			<point x="78" y="687" type="line"/>
			<point x="78" y="0" type="line"/>
			<point x="156" y="0" type="line"/>
			<point x="156" y="559" type="line"/>
			<point x="582" y="0" type="line"/>
			<point x="660" y="0" type="line"/>
			<point x="660" y="687" type="line"/>
			<point x="582" y="687" type="line"/>
			<point x="582" y="128" type="line"/>
			<point x="156" y="687" type="line"/>
		</contour>
	</outline>
</glyph>
<glyph name="O" format="2">
	<advance width="811"/>
	<unicode hex="004F"/>
	<anchor x="406" y="687" name="top"/>
	<outline>
		<contour>
			<point x="406" y="-12" type="curve"/>
			<point x="406" y="-12" type="line"/>
			<point x="597" y="-12"/>
			<point x="757" y="151"/>
			<point x="757" y="344" type="curve"/>
			<point x="757" y="537"/>
			<point x="597" y="699"/>
			<point x="406" y="699" type="curve"/>
			<point x="216" y="699"/>
			<point x="54" y="537"/>
			<point x="54" y="344" type="curve"/>
			<point x="54" y="151"/>
			<point x="216" y="-12"/>
		</contour>
		<contour>
			<point x="406" y="60" type="curve"/>
			<point x="406" y="60" type="line"/>
			<point x="258" y="60"/>
			<point x="133" y="190"/>
			<point x="133" y="344" type="curve"/>
			<point x="133" y="497"/>
			<point x="258" y="627"/>
			<point x="406" y="627" type="curve"/>
			<point x="554" y="627"/>
			<point x="678" y="497"/>
			<point x="678" y="344" type="curve"/>
			<point x="678" y="190"/>
			<point x="554" y="60"/>
		</contour>
	</outline>
</glyph>
<glyph name="S" format="2">
	<advance width="613"/>
	<unicode hex="0053"/>
	<anchor x="309" y="687" name="top"/>
	<anchor x="310" y="0" name="bottom"/>
	<outline>
		<contour>
			<point x="319" y="-11" type="curve"/>
			<point x="319" y="-11" type="line"/>
			<point x="479" y="-11"/>
			<point x="561" y="78"/>
			<point x="561" y="187" type="curve"/>
			<point x="561" y="308"/>
			<point x="467" y="355"/>
			<point x="336" y="386" type="curve"/>
			<point x="219" y="414"/>
			<point x="151" y="439"/>
			<point x="151" y="510" type="curve"/>
			<point x="151" y="573"/>
			<point x="213" y="629"/>
			<point x="298" y="629" type="curve"/>
			<point x="370" y="629"/>
			<point x="438" y="596"/>
			<point x="495" y="541" type="curve"/>
			<point x="543" y="602" type="line"/>
			<point x="480" y="660"/>
			<point x="404" y="700"/>
			<point x="302" y="700" type="curve"/>
			<point x="170" y="700"/>
			<point x="72" y="614"/>
			<point x="72" y="504" type="curve"/>
			<point x="72" y="385"/>
			<point x="159" y="342"/>
			<point x="297" y="310" type="curve"/>
			<point x="417" y="282"/>
			<point x="482" y="253"/>
			<point x="482" y="180" type="curve"/>
			<point x="482" y="118"/>
			<point x="428" y="60"/>
			<point x="322" y="60" type="curve"/>
			<point x="226" y="60"/>
			<point x="155" y="101"/>
			<point x="97" y="159" type="curve"/>
			<point x="48" y="98" type="line"/>
			<point x="117" y="30"/>
			<point x="206" y="-11"/>
		</contour>
	</outline>
</glyph>
<glyph name="W" format="2">
	<advance width="1101"/>
	<unicode hex="0057"/>
	<anchor x="551" y="687" name="top"/>
	<outline>
		<contour>
			<point x="47" y="687" type="line"/>
			<point x="282" y="0" type="line"/>
			<point x="359" y="0" type="line"/>
			<point x="551" y="585" type="line"/>
			<point x="742" y="0" type="line"/>
			<point x="819" y="0" type="line"/>
			<point x="1054" y="687" type="line"/>
			<point x="966" y="687" type="line"/>
			<point x="776" y="131" type="line"/>
			<point x="594" y="687" type="line"/>
			<point x="507" y="687" type="line"/>
			<point x="325" y="131" type="line"/>
			<point x="135" y="687" type="line"/>
		</contour>
	</outline>
</glyph>
<glyph name="Y" format="2">
	<advance width="727"/>
	<unicode hex="0059"/>
	<anchor x="364" y="687" name="top"/>
	<outline>
		<contour>
			<point x="323" y="280" type="line"/>
			<point x="323" y="0" type="line"/>
			<point x="405" y="0" type="line"/>
			<point x="405" y="280" type="line"/>
			<point x="681" y="687" type="line"/>
			<point x="587" y="687" type="line"/>
			<point x="364" y="354" type="line"/>
			<point x="143" y="687" type="line"/>
			<point x="46" y="687" type="line"/>
		</contour>
	</outline>
</glyph>
<glyph name="Z" format="2">
	<advance width="631"/>
	<unicode hex="005A"/>
	<anchor x="317" y="687" name="top"/>
	<outline>
		<contour>
			<point x="53" y="62" type="line"/>
			<point x="53" y="0" type="line"/>
			<point x="578" y="0" type="line"/>
			<point x="578" y="74" type="line"/>
			<point x="159" y="74" type="line"/>
			<point x="574" y="625" type="line"/>
			<point x="574" y="687" type="line"/>
			<point x="60" y="687" type="line"/>
			<point x="60" y="613" type="line"/>
			<point x="467" y="613" type="line"/>
		</contour>
	</outline>
</glyph>
<glyph name="backslash" format="2">
	<advance width="490"/>
	<unicode hex="005C"/>
	<outline>
		<contour>
			<point x="27" y="743" type="line"/>
			<point x="378" y="-74" type="line"/>
			<point x="463" y="-74" type="line"/>
			<point x="112" y="743" type="line"/>
		</contour>
	</outline>
</glyph>
<glyph name="asciicircum" format="2">
	<advance width="500"/>
	<unicode hex="005E"/>
	<outline>
		<contour>
			<point x="221" y="687" type="line"/>
			<point x="59" y="413" type="line"/>
			<point x="123" y="413" type="line"/>
			<point x="250" y="632" type="line"/>
			<point x="376" y="413" type="line"/>
			<point x="441" y="413" type="line"/>
			<point x="280" y="687" type="line"/>
		</contour>
	</outline>
</glyph>
<glyph name="a" format="2">
	<advance width="529"/>
	<unicode hex="0061"/>
	<anchor x="287" y="517" name="top"/>
	<anchor x="479" y="0" name="bottom"/>
	<outline>
		<contour>
			<point x="404" y="315" type="curve"/>
			<point x="404" y="0" type="line"/>
			<point x="479" y="0" type="line"/>
			<point x="479" y="315" type="line" smooth="yes"/>
			<point x="479" y="440"/>
			<point x="410" y="529"/>
			<point x="269" y="529" type="curve"/>
			<point x="219" y="529"/>
			<point x="157" y="516"/>
			<point x="83" y="479" type="curve"/>
			<point x="113" y="418" type="line"/>
			<point x="160" y="442"/>
			<point x="212" y="465"/>
			<point x="264" y="465" type="curve"/>
			<point x="376" y="465"/>
			<point x="404" y="385"/>
		</contour>
		<contour>
			<point x="222" y="-12" type="curve"/>
			<point x="222" y="-12" type="line"/>
			<point x="304" y="-12"/>
			<point x="400" y="35"/>
			<point x="421" y="123" type="curve"/>
			<point x="404" y="162" type="line"/>
			<point x="384" y="89"/>
			<point x="303" y="54"/>
			<point x="235" y="54" type="curve"/>
			<point x="162" y="54"/>
			<point x="106" y="92"/>
			<point x="106" y="156" type="curve"/>
			<point x="106" y="218"/>
			<point x="171" y="262"/>
			<point x="248" y="262" type="curve"/>
			<point x="318" y="262"/>
			<point x="382" y="250"/>
			<point x="437" y="230" type="curve"/>
			<point x="437" y="284" type="line"/>
			<point x="376" y="308"/>
			<point x="304" y="325"/>
			<point x="236" y="325" type="curve"/>
			<point x="125" y="325"/>
			<point x="33" y="256"/>
			<point x="33" y="153" type="curve"/>
			<point x="33" y="51"/>
			<point x="113" y="-12"/>
		</contour>
	</outline>
</glyph>
<glyph name="f" format="2">
	<advance width="344"/>
	<unicode hex="0066"/>
	<outline>
		<contour>
			<point x="111" y="588" type="curve"/>
			<point x="111" y="0" type="line"/>
			<point x="186" y="0" type="line"/>
			<point x="186" y="588" type="line" smooth="yes"/>
			<point x="186" y="626"/>
			<point x="212" y="653"/>
			<point x="242" y="653" type="curve"/>
			<point x="265" y="653"/>
			<point x="285" y="644"/>
			<point x="296" y="632" type="curve"/>
			<point x="333" y="687" type="line"/>
			<point x="306" y="708"/>
			<point x="272" y="720"/>
			<point x="237" y="720" type="curve"/>
			<point x="163" y="720"/>
			<point x="111" y="665"/>
		</contour>
		<contour>
			<point x="30" y="517" type="line"/>
			<point x="30" y="450" type="line"/>
			<point x="313" y="450" type="line"/>
			<point x="313" y="517" type="line"/>
		</contour>
	</outline>
</glyph>
<glyph name="m" format="2">
	<advance width="850"/>
	<unicode hex="006D"/>
	<outline>
		<contour>
			<point x="391" y="319" type="curve"/>
			<point x="391" y="0" type="line"/>
			<point x="466" y="0" type="line"/>
			<point x="466" y="329" type="line" smooth="yes"/>
			<point x="466" y="446"/>
			<point x="390" y="529"/>
			<point x="282" y="529" type="curve"/>
			<point x="190" y="529"/>
			<point x="121" y="467"/>
			<point x="116" y="379" type="curve"/>
			<point x="132" y="329" type="line"/>
			<point x="132" y="407"/>
			<point x="190" y="462"/>
			<point x="272" y="462" type="curve"/>
			<point x="342" y="462"/>
			<point x="391" y="403"/>
		</contour>
		<contour>
			<point x="57" y="517" type="line"/>
			<point x="57" y="0" type="line"/>
			<point x="132" y="0" type="line"/>
			<point x="132" y="517" type="line"/>
		</contour>
		<contour>
			<point x="725" y="319" type="curve"/>
			<point x="725" y="0" type="line"/>
			<point x="800" y="0" type="line"/>
			<point x="800" y="329" type="line" smooth="yes"/>
			<point x="800" y="446"/>
			<point x="724" y="529"/>
			<point x="616" y="529" type="curve"/>
			<point x="493" y="529"/>
			<point x="402" y="447"/>
			<point x="395" y="329" type="curve"/>
			<point x="466" y="329" type="line"/>
			<point x="466" y="407"/>
			<point x="524" y="462"/>
			<point x="606" y="462" type="curve"/>
			<point x="676" y="462"/>
			<point x="725" y="403"/>
		</contour>
	</outline>
</glyph>
<glyph name="n" format="2">
	<advance width="546"/>
	<unicode hex="006E"/>
	<anchor x="276" y="517" name="top"/>
	<anchor x="276" y="0" name="bottom"/>
	<outline>
		<contour>
			<point x="421" y="319" type="curve"/>
			<point x="421" y="0" type="line"/>
			<point x="496" y="0" type="line"/>
			<point x="496" y="329" type="line" smooth="yes"/>
			<point x="496" y="448"/>
			<point x="417" y="529"/>
			<point x="302" y="529" type="curve"/>
			<point x="205" y="529"/>
			<point x="121" y="462"/>
			<point x="116" y="379" type="curve"/>
			<point x="132" y="329" type="line"/>
			<point x="132" y="402"/>
			<point x="204" y="462"/>
			<point x="292" y="462" type="curve"/>
			<point x="368" y="462"/>
			<point x="421" y="404"/>
		</contour>
		<contour>
			<point x="57" y="517" type="line"/>
			<point x="57" y="0" type="line"/>
			<point x="132" y="0" type="line"/>
			<point x="132" y="517" type="line"/>
		</contour>
	</outline>
</glyph>
<glyph name="o" format="2">
	<advance width="603"/>
	<unicode hex="006F"/>
	<anchor x="302" y="517" name="top"/>
	<outline>
		<contour>
			<point x="302" y="-12" type="curve"/>
			<point x="302" y="-12" type="line"/>
			<point x="448" y="-12"/>
			<point x="568" y="110"/>
			<point x="568" y="259" type="curve"/>
			<point x="568" y="408"/>
			<point x="448" y="529"/>
			<point x="302" y="529" type="curve"/>
			<point x="155" y="529"/>
			<point x="35" y="408"/>
			<point x="35" y="259" type="curve"/>
			<point x="35" y="110"/>
			<point x="155" y="-12"/>
		</contour>
		<contour>
			<point x="302" y="55" type="curve"/>
			<point x="302" y="55" type="line"/>
			<point x="198" y="55"/>
			<point x="113" y="147"/>
			<point x="113" y="259" type="curve"/>
			<point x="113" y="371"/>
			<point x="198" y="462"/>
			<point x="302" y="462" type="curve"/>
			<point x="405" y="462"/>
			<point x="490" y="371"/>
			<point x="490" y="259" type="curve"/>
			<point x="490" y="147"/>
			<point x="405" y="55"/>
		</contour>
	</outline>
</glyph>
<glyph name="p" format="2">
	<advance width="596"/>
	<unicode hex="0070"/>
	<outline>
		<contour>
			<point x="322" y="-12" type="curve"/>
			<point x="322" y="-12" type="line"/>
			<point x="458" y="-12"/>
			<point x="560" y="100"/>
			<point x="560" y="259" type="curve"/>
			<point x="560" y="417"/>
			<point x="458" y="529"/>
			<point x="322" y="529" type="curve"/>
			<point x="185" y="529"/>
			<point x="95" y="417"/>
			<point x="95" y="259" type="curve"/>
			<point x="95" y="100"/>
			<point x="185" y="-12"/>
		</contour>
		<contour>
			<point x="308" y="55" type="curve"/>
			<point x="308" y="55" type="line"/>
			<point x="206" y="55"/>
			<point x="134" y="140"/>
			<point x="134" y="259" type="curve"/>
			<point x="134" y="378"/>
			<point x="206" y="462"/>
			<point x="308" y="462" type="curve"/>
			<point x="409" y="462"/>
			<point x="481" y="378"/>
			<point x="481" y="259" type="curve"/>
			<point x="481" y="140"/>
			<point x="409" y="55"/>
		</contour>
		<contour>
			<point x="59" y="517" type="line"/>
			<point x="59" y="-172" type="line"/>
			<point x="134" y="-172" type="line"/>
			<point x="134" y="517" type="line"/>
		</contour>
	</outline>
</glyph>
<glyph name="q" format="2">
	<advance width="597"/>
	<unicode hex="0071"/>
	<outline>
		<contour>
			<point x="463" y="517" type="line"/>
			<point x="463" y="-172" type="line"/>
			<point x="538" y="-172" type="line"/>
			<point x="538" y="517" type="line"/>
		</contour>
		<contour>
			<point x="275" y="-12" type="curve"/>
			<point x="275" y="-12" type="line"/>
			<point x="412" y="-12"/>
			<point x="502" y="100"/>
			<point x="502" y="259" type="curve"/>
			<point x="502" y="417"/>
			<point x="412" y="529"/>
			<point x="275" y="529" type="curve"/>
			<point x="139" y="529"/>
			<point x="37" y="417"/>
			<point x="37" y="259" type="curve"/>
			<point x="37" y="100"/>
			<point x="139" y="-12"/>
		</contour>
		<contour>
			<point x="289" y="55" type="curve"/>
			<point x="289" y="55" type="line"/>
			<point x="188" y="55"/>
			<point x="116" y="140"/>
			<point x="116" y="259" type="curve"/>
			<point x="116" y="378"/>
			<point x="188" y="462"/>
			<point x="289" y="462" type="curve"/>
			<point x="391" y="462"/>
			<point x="463" y="378"/>
			<point x="463" y="259" type="curve"/>
			<point x="463" y="140"/>
			<point x="391" y="55"/>
		</contour>
	</outline>
</glyph>
<glyph name="r" format="2">
	<advance width="362"/>
	<unicode hex="0072"/>
	<anchor x="197" y="517" name="top"/>
	<anchor x="197" y="0" name="bottom"/>
	<outline>
		<contour>
			<point x="116" y="339" type="curve"/>
			<point x="132" y="289" type="line"/>
			<point x="132" y="390"/>
			<point x="215" y="462"/>
			<point x="332" y="462" type="curve"/>
			<point x="332" y="529" type="line"/>
			<point x="205" y="529"/>
			<point x="116" y="450"/>
		</contour>
		<contour>
			<point x="57" y="517" type="line"/>
			<point x="57" y="0" type="line"/>
			<point x="132" y="0" type="line"/>
			<point x="132" y="517" type="line"/>
		</contour>
	</outline>
</glyph>
<glyph name="w" format="2">
	<advance width="823"/>
	<unicode hex="0077"/>
	<anchor x="412" y="517" name="top"/>
	<outline>
		<contour>
			<point x="29" y="517" type="line"/>
			<point x="202" y="0" type="line"/>
			<point x="273" y="0" type="line"/>
			<point x="412" y="413" type="line"/>
			<point x="549" y="0" type="line"/>
			<point x="620" y="0" type="line"/>
			<point x="794" y="517" type="line"/>
			<point x="714" y="517" type="line"/>
			<point x="585" y="100" type="line"/>
			<point x="444" y="517" type="line"/>
			<point x="379" y="517" type="line"/>
			<point x="238" y="100" type="line"/>
			<point x="109" y="517" type="line"/>
		</contour>
	</outline>
</glyph>
<glyph name="x" format="2">
	<advance width="543"/>
	<unicode hex="0078"/>
	<outline>
		<contour>
			<point x="36" y="517" type="line"/>
			<point x="427" y="0" type="line"/>
			<point x="515" y="0" type="line"/>
			<point x="124" y="517" type="line"/>
		</contour>
		<contour>
			<point x="419" y="517" type="line"/>
			<point x="28" y="0" type="line"/>
			<point x="116" y="0" type="line"/>
			<point x="507" y="517" type="line"/>
		</contour>
	</outline>
</glyph>
<glyph name="z" format="2">
	<advance width="479"/>
	<unicode hex="007A"/>
	<anchor x="245" y="517" name="top"/>
	<outline>
		<contour>
			<point x="35" y="59" type="line"/>
			<point x="35" y="0" type="line"/>
			<point x="443" y="0" type="line"/>
			<point x="443" y="71" type="line"/>
			<point x="135" y="71" type="line"/>
			<point x="441" y="458" type="line"/>
			<point x="441" y="517" type="line"/>
			<point x="41" y="517" type="line"/>
			<point x="41" y="446" type="line"/>
			<point x="340" y="446" type="line"/>
		</contour>
	</outline>
</glyph>
<glyph name="braceright" format="2">
	<advance width="402"/>
	<unicode hex="007D"/>
	<outline>
		<contour>
			<point x="50" y="-113" type="curve"/>
			<point x="56" y="-166" type="line"/>
			<point x="211" y="-149"/>
			<point x="257" y="-100"/>
			<point x="257" y="3" type="curve"/>
			<point x="257" y="144" type="line" smooth="yes"/>
			<point x="257" y="211"/>
			<point x="284" y="238"/>
			<point x="355" y="238" type="curve"/>
			<point x="355" y="293" type="line"/>
			<point x="283" y="293"/>
			<point x="257" y="322"/>
			<point x="257" y="388" type="curve"/>
			<point x="257" y="528" type="line" smooth="yes"/>
			<point x="257" y="632"/>
			<point x="210" y="680"/>
			<point x="56" y="697" type="curve"/>
			<point x="50" y="644" type="line"/>
			<point x="169" y="626"/>
			<point x="192" y="603"/>
			<point x="192" y="524" type="curve"/>
			<point x="191" y="380" type="line" smooth="yes"/>
			<point x="191" y="317"/>
			<point x="217" y="283"/>
			<point x="266" y="266" type="curve"/>
			<point x="216" y="248"/>
			<point x="191" y="214"/>
			<point x="191" y="151" type="curve"/>
			<point x="192" y="8" type="line" smooth="yes"/>
			<point x="192" y="-73"/>
			<point x="167" y="-95"/>
		</contour>
	</outline>
</glyph>
<glyph name="copyright" format="2">
	<advance width="919"/>
	<unicode hex="00A9"/>
	<outline>
		<contour>
			<point x="460" y="-116" type="curve"/>
			<point x="460" y="-116" type="line"/>
			<point x="678" y="-116"/>
			<point x="856" y="62"/>
			<point x="856" y="280" type="curve"/>
			<point x="856" y="497"/>
			<point x="678" y="675"/>
			<point x="460" y="675" type="curve"/>
			<point x="242" y="675"/>
			<point x="63" y="497"/>
			<point x="63" y="280" type="curve"/>
			<point x="63" y="62"/>
			<point x="242" y="-116"/>
		</contour>
		<contour>
			<point x="460" y="-80" type="curve"/>
			<point x="460" y="-80" type="line"/>
			<point x="261" y="-80"/>
			<point x="99" y="82"/>
			<point x="99" y="280" type="curve"/>
			<point x="99" y="477"/>
			<point x="261" y="639"/>
			<point x="460" y="639" type="curve"/>
			<point x="658" y="639"/>
			<point x="820" y="477"/>
			<point x="820" y="280" type="curve"/>
			<point x="820" y="82"/>
			<point x="658" y="-80"/>
		</contour>
		<contour>
			<point x="460" y="9" type="curve"/>
			<point x="460" y="9" type="line"/>
			<point x="532" y="9"/>
			<point x="598" y="39"/>
			<point x="647" y="88" type="curve"/>
			<point x="595" y="139" type="line"/>
			<point x="560" y="100"/>
			<point x="512" y="76"/>
			<point x="460" y="76" type="curve"/>
			<point x="357" y="76"/>
			<point x="271" y="169"/>
			<point x="271" y="280" type="curve"/>
			<point x="271" y="390"/>
			<point x="357" y="483"/>
			<point x="460" y="483" type="curve"/>
			<point x="511" y="483"/>
			<point x="558" y="460"/>
			<point x="592" y="423" type="curve"/>
			<point x="644" y="474" type="line"/>
			<point x="595" y="521"/>
			<point x="530" y="550"/>
			<point x="460" y="550" type="curve"/>
			<point x="315" y="550"/>
			<point x="192" y="427"/>
			<point x="192" y="280" type="curve"/>
			<point x="192" y="133"/>
			<point x="315" y="9"/>
		</contour>
	</outline>
</glyph>
<glyph name="registered" format="2">
	<advance width="623"/>
	<unicode hex="00AE"/>
	<outline>
		<contour>
			<point x="312" y="184" type="curve"/>
			<point x="312" y="184" type="line"/>
			<point x="447" y="184"/>
			<point x="558" y="295"/>
			<point x="558" y="430" type="curve"/>
			<point x="558" y="565"/>
			<point x="447" y="675"/>
			<point x="312" y="675" type="curve"/>
			<point x="176" y="675"/>
			<point x="65" y="565"/>
			<point x="65" y="430" type="curve"/>
			<point x="65" y="295"/>
			<point x="176" y="184"/>
		</contour>
		<contour>
			<point x="312" y="220" type="curve"/>
			<point x="312" y="220" type="line"/>
			<point x="196" y="220"/>
			<point x="101" y="314"/>
			<point x="101" y="430" type="curve"/>
			<point x="101" y="545"/>
			<point x="196" y="639"/>
			<point x="312" y="639" type="curve"/>
			<point x="428" y="639"/>
			<point x="522" y="545"/>
			<point x="522" y="430" type="curve"/>
			<point x="522" y="314"/>
			<point x="428" y="220"/>
		</contour>
		<contour>
			<point x="292" y="397" type="line"/>
			<point x="375" y="279" type="line"/>
			<point x="450" y="279" type="line"/>
			<point x="367" y="397" type="line"/>
		</contour>
		<contour>
			<point x="323" y="444" type="curve"/>
			<point x="265" y="444" type="line"/>
			<point x="265" y="505" type="line"/>
			<point x="323" y="505" type="line" smooth="yes"/>
			<point x="348" y="505"/>
			<point x="366" y="493"/>
			<point x="366" y="475" type="curve"/>
			<point x="366" y="457"/>
			<point x="348" y="444"/>
		</contour>
		<contour>
			<point x="190" y="579" type="line"/>
			<point x="190" y="279" type="line"/>
			<point x="265" y="279" type="line"/>
			<point x="265" y="370" type="line"/>
			<point x="331" y="370" type="line" smooth="yes"/>
			<point x="399" y="370"/>
			<point x="445" y="413"/>
			<point x="445" y="475" type="curve"/>
			<point x="445" y="537"/>
			<point x="399" y="579"/>
			<point x="331" y="579" type="curve"/>
		</contour>
	</outline>
</glyph>
<glyph name="macron" format="2">
	<advance width="404"/>
	<unicode hex="00AF"/>
	<anchor x="202" y="704" name="top"/>
	<anchor x="202" y="517" name="_top"/>
	<outline>
		<contour>
			<point x="47" y="649" type="line"/>
			<point x="47" y="594" type="line"/>
			<point x="357" y="594" type="line"/>
			<point x="357" y="649" type="line"/>
		</contour>
	</outline>
</glyph>
<glyph name="acute" format="2">
	<advance width="260"/>
	<unicode hex="00B4"/>
	<anchor x="60" y="704" name="top"/>
	<anchor x="60" y="517" name="_top"/>
	<outline>
		<contour>
			<point x="151" y="720" type="line"/>
			<point x="30" y="576" type="line"/>
			<point x="88" y="576" type="line"/>
			<point x="230" y="702" type="line"/>
		</contour>
	</outline>
</glyph>
<glyph name="cedilla" format="2">
	<advance width="253"/>
	<unicode hex="00B8"/>
	<anchor x="132" y="0" name="_bottom"/>
	<outline>
		<contour>
			<point x="119" y="-192" type="curve"/>
			<point x="119" y="-192" type="line"/>
			<point x="174" y="-192"/>
			<point x="217" y="-160"/>
			<point x="217" y="-111" type="curve"/>
			<point x="217" y="-72"/>
			<point x="188" y="-45"/>
			<point x="148" y="-45" type="curve"/>
			<point x="125" y="-45"/>
			<point x="97" y="-54"/>
			<point x="81" y="-67" type="curve"/>
			<point x="128" y="-67" type="line"/>
			<point x="161" y="11" type="line"/>
			<point x="109" y="11" type="line"/>
			<point x="76" y="-67" type="line"/>
			<point x="92" y="-84" type="line"/>
			<point x="101" y="-77"/>
			<point x="114" y="-73"/>
			<point x="126" y="-73" type="curve"/>
			<point x="153" y="-73"/>
			<point x="165" y="-88"/>
			<point x="165" y="-107" type="curve"/>
			<point x="165" y="-129"/>
			<point x="144" y="-145"/>
			<point x="115" y="-145" type="curve"/>
			<point x="93" y="-145"/>
			<point x="70" y="-138"/>
			<point x="50" y="-122" type="curve"/>
			<point x="31" y="-164" type="line"/>
			<point x="51" y="-180"/>
			<point x="84" y="-192"/>
		</contour>
	</outline>
</glyph>
<glyph name="Thorn" format="2">
	<advance width="662"/>
	<unicode hex="00DE"/>
	<outline>
		<contour>
			<point x="78" y="687" type="line"/>
			<point x="78" y="0" type="line"/>
			<point x="156" y="0" type="line"/>
			<point x="156" y="126" type="line"/>
			<point x="357" y="126" type="line" smooth="yes"/>
			<point x="499" y="126"/>
			<point x="610" y="217"/>
			<point x="610" y="346" type="curve"/>
			<point x="610" y="475"/>
			<point x="499" y="566"/>
			<point x="357" y="566" type="curve"/>
			<point x="158" y="566" type="line"/>
			<point x="158" y="687" type="line"/>
		</contour>
		<contour>
			<point x="343" y="200" type="curve"/>
			<point x="156" y="200" type="line"/>
			<point x="156" y="492" type="line"/>
			<point x="343" y="492" type="line" smooth="yes"/>
			<point x="455" y="492"/>
			<point x="531" y="438"/>
			<point x="531" y="346" type="curve"/>
			<point x="531" y="254"/>
			<point x="455" y="200"/>
		</contour>
	</outline>
</glyph>
<glyph name="germandbls" format="2">
	<advance width="538"/>
	<unicode hex="00DF"/>
	<outline>
		<contour>
			<point x="59" y="526" type="curve"/>
			<point x="59" y="0" type="line"/>
			<point x="137" y="0" type="line"/>
			<point x="137" y="513" type="line" smooth="yes"/>
			<point x="137" y="585"/>
			<point x="191" y="636"/>
			<point x="267" y="636" type="curve"/>
			<point x="343" y="636"/>
			<point x="397" y="586"/>
			<point x="397" y="516" type="curve"/>
			<point x="397" y="452"/>
			<point x="343" y="396"/>
			<point x="267" y="396" type="curve"/>
			<point x="212" y="396" type="line"/>
			<point x="212" y="325" type="line"/>
			<point x="279" y="325" type="line" smooth="yes"/>
			<point x="364" y="325"/>
			<point x="424" y="272"/>
			<point x="424" y="198" type="curve"/>
			<point x="424" y="124"/>
			<point x="364" y="71"/>
			<point x="279" y="71" type="curve"/>
			<point x="212" y="71" type="line"/>
			<point x="212" y="0" type="line"/>
			<point x="299" y="0" type="line" smooth="yes"/>
			<point x="418" y="0"/>
			<point x="503" y="78"/>
			<point x="503" y="188" type="curve"/>
			<point x="503" y="274"/>
			<point x="463" y="331"/>
			<point x="378" y="365" type="curve"/>
			<point x="444" y="395"/>
			<point x="476" y="447"/>
			<point x="476" y="526" type="curve"/>
			<point x="476" y="632"/>
			<point x="390" y="707"/>
			<point x="268" y="707" type="curve"/>
			<point x="146" y="707"/>
			<point x="59" y="632"/>
		</contour>
	</outline>
</glyph>
<glyph name="ae" format="2">
	<advance width="936"/>
	<unicode hex="00E6"/>
	<anchor x="659" y="517" name="top"/>
	<anchor x="636" y="-12" name="bottom"/>
	<outline>
		<contour>
			<point x="232" y="-12" type="curve"/>
			<point x="232" y="-12" type="line"/>
			<point x="324" y="-12"/>
			<point x="406" y="37"/>
			<point x="449" y="107" type="curve"/>
			<point x="497" y="33"/>
			<point x="579" y="-12"/>
			<point x="666" y="-12" type="curve"/>
			<point x="738" y="-12"/>
			<point x="829" y="19"/>
			<point x="874" y="68" type="curve"/>
			<point x="828" y="117" type="line"/>
			<point x="796" y="82"/>
			<point x="726" y="55"/>
			<point x="665" y="55" type="curve"/>
			<point x="553" y="55"/>
			<point x="479" y="144"/>
			<point x="479" y="260" type="curve"/>
			<point x="479" y="380"/>
			<point x="559" y="462"/>
			<point x="662" y="462" type="curve"/>
			<point x="774" y="462"/>
			<point x="829" y="377"/>
			<point x="832" y="273" type="curve"/>
			<point x="864" y="297" type="line"/>
			<point x="455" y="297" type="line"/>
			<point x="455" y="230" type="line"/>
			<point x="904" y="230" type="line"/>
			<point x="904" y="411"/>
			<point x="815" y="529"/>
			<point x="659" y="529" type="curve"/>
			<point x="577" y="529"/>
			<point x="503" y="489"/>
			<point x="456" y="425" type="curve"/>
			<point x="426" y="489"/>
			<point x="364" y="529"/>
			<point x="269" y="529" type="curve"/>
			<point x="219" y="529"/>
			<point x="157" y="516"/>
			<point x="83" y="479" type="curve"/>
			<point x="113" y="418" type="line"/>
			<point x="160" y="442"/>
			<point x="212" y="465"/>
			<point x="264" y="465" type="curve"/>
			<point x="376" y="465"/>
			<point x="404" y="385"/>
			<point x="404" y="315" type="curve"/>
			<point x="404" y="296" type="line"/>
			<point x="351" y="313"/>
			<point x="292" y="325"/>
			<point x="236" y="325" type="curve"/>
			<point x="125" y="325"/>
			<point x="33" y="256"/>
			<point x="33" y="153" type="curve"/>
			<point x="33" y="49"/>
			<point x="107" y="-12"/>
		</contour>
		<contour>
			<point x="235" y="54" type="curve"/>
			<point x="235" y="54" type="line"/>
			<point x="162" y="54"/>
			<point x="106" y="92"/>
			<point x="106" y="156" type="curve"/>
			<point x="106" y="218"/>
			<point x="171" y="262"/>
			<point x="248" y="262" type="curve"/>
			<point x="304" y="262"/>
			<point x="357" y="254"/>
			<point x="404" y="241" type="curve"/>
			<point x="404" y="162" type="line"/>
			<point x="384" y="89"/>
			<point x="303" y="54"/>
		</contour>
	</outline>
</glyph>
<glyph name="divide" format="2">
	<advance width="584"/>
	<unicode hex="00F7"/>
	<outline>
		<contour>
			<point x="61" y="371" type="line"/>
			<point x="61" y="297" type="line"/>
			<point x="520" y="297" type="line"/>
			<point x="520" y="371" type="line"/>
		</contour>
		<contour>
			<point x="292" y="118" type="curve"/>
			<point x="292" y="118" type="line"/>
			<point x="321" y="118"/>
			<point x="345" y="143"/>
			<point x="345" y="173" type="curve"/>
			<point x="345" y="201"/>
			<point x="321" y="226"/>
			<point x="292" y="226" type="curve"/>
			<point x="261" y="226"/>
			<point x="237" y="201"/>
			<point x="237" y="173" type="curve"/>
			<point x="237" y="143"/>
			<point x="261" y="118"/>
		</contour>
		<contour>
			<point x="292" y="442" type="curve"/>
			<point x="292" y="442" type="line"/>
			<point x="321" y="442"/>
			<point x="345" y="467"/>
			<point x="345" y="497" type="curve"/>
			<point x="345" y="525"/>
			<point x="321" y="550"/>
			<point x="292" y="550" type="curve"/>
			<point x="261" y="550"/>
			<point x="237" y="525"/>
			<point x="237" y="497" type="curve"/>
			<point x="237" y="467"/>
			<point x="261" y="442"/>
		</contour>
	</outline>
</glyph>
<glyph name="oslash" format="2">
	<advance width="611"/>
	<unicode hex="00F8"/>
	<anchor x="303" y="517" name="top"/>
	<outline>
		<contour>
			<point x="489" y="517" type="line"/>
			<point x="48" y="0" type="line"/>
			<point x="133" y="0" type="line"/>
			<point x="574" y="517" type="line"/>
		</contour>
		<contour>
			<point x="303" y="-12" type="curve"/>
			<point x="303" y="-12" type="line"/>
			<point x="449" y="-12"/>
			<point x="569" y="110"/>
			<point x="569" y="259" type="curve"/>
			<point x="569" y="408"/>
			<point x="449" y="529"/>
			<point x="303" y="529" type="curve"/>
			<point x="156" y="529"/>
			<point x="36" y="408"/>
			<point x="36" y="259" type="curve"/>
			<point x="36" y="110"/>
			<point x="156" y="-12"/>
		</contour>
		<contour>
			<point x="303" y="55" type="curve"/>
			<point x="303" y="55" type="line"/>
			<point x="199" y="55"/>
			<point x="114" y="147"/>
			<point x="114" y="259" type="curve"/>
			<point x="114" y="371"/>
			<point x="199" y="462"/>
			<point x="303" y="462" type="curve"/>
			<point x="406" y="462"/>
			<point x="491" y="371"/>
			<point x="491" y="259" type="curve"/>
			<point x="491" y="147"/>
			<point x="406" y="55"/>
		</contour>
	</outline>
</glyph>
<glyph name="idotless" format="2">
	<advance width="189"/>
	<unicode hex="0131"/>
	<anchor x="95" y="517" name="top"/>
	<anchor x="132" y="0" name="bottom"/>
	<outline>
		<contour>
			<point x="57" y="517" type="line"/>
			<point x="57" y="0" type="line"/>
			<point x="132" y="0" type="line"/>
			<point x="132" y="517" type="line"/>
		</contour>
	</outline>
</glyph>
<glyph name="lcaron" format="2">
	<advance width="303"/>
	<unicode hex="013E"/>
	<anchor x="97" y="699" name="top"/>
	<anchor x="97" y="0" name="bottom"/>
	<outline>
		<contour>
			<point x="59" y="699" type="line"/>
			<point x="59" y="0" type="line"/>
			<point x="134" y="0" type="line"/>
			<point x="134" y="699" type="line"/>
		</contour>
		<contour>
			<point x="206" y="529" type="curve"/>
			<point x="238" y="506" type="line"/>
			<point x="288" y="570"/>
			<point x="303" y="598"/>
			<point x="303" y="631" type="curve"/>
			<point x="303" y="671"/>
			<point x="283" y="699"/>
			<point x="251" y="699" type="curve"/>
			<point x="225" y="699"/>
			<point x="205" y="678"/>
			<point x="205" y="654" type="curve"/>
			<point x="205" y="629"/>
			<point x="225" y="608"/>
			<point x="250" y="608" type="curve"/>
			<point x="244" y="581"/>
			<point x="229" y="555"/>
		</contour>
	</outline>
</glyph>
<glyph name="Lslash" format="2">
	<advance width="662"/>
	<unicode hex="0141"/>
	<anchor x="202" y="687" name="top"/>
	<outline>
		<contour>
			<point x="49" y="309" type="line"/>
			<point x="49" y="234" type="line"/>
			<point x="348" y="388" type="line"/>
			<point x="348" y="463" type="line"/>
		</contour>
		<contour>
			<point x="160" y="687" type="line"/>
			<point x="160" y="0" type="line"/>
			<point x="613" y="0" type="line"/>
			<point x="613" y="74" type="line"/>
			<point x="215" y="74" type="line"/>
			<point x="238" y="50" type="line"/>
			<point x="238" y="687" type="line"/>
		</contour>
	</outline>
</glyph>
<glyph name="lslash" format="2">
	<advance width="295"/>
	<unicode hex="0142"/>
	<anchor x="148" y="699" name="top"/>
	<anchor x="148" y="0" name="bottom"/>
	<outline>
		<contour>
			<point x="31" y="309" type="line"/>
			<point x="31" y="234" type="line"/>
			<point x="264" y="354" type="line"/>
			<point x="264" y="429" type="line"/>
		</contour>
		<contour>
			<point x="110" y="699" type="line"/>
			<point x="110" y="0" type="line"/>
			<point x="185" y="0" type="line"/>
			<point x="185" y="699" type="line"/>
		</contour>
	</outline>
</glyph>
<glyph name="jdotless" format="2">
	<advance width="193"/>
	<unicode hex="0237"/>
	<anchor x="97" y="517" name="top"/>
	<outline>
		<contour>
			<point x="8" y="-178" type="curve"/>
			<point x="8" y="-178" type="line"/>
			<point x="82" y="-178"/>
			<point x="134" y="-123"/>
			<point x="134" y="-46" type="curve"/>
			<point x="134" y="517" type="line"/>
			<point x="59" y="517" type="line"/>
			<point x="59" y="-46" type="line" smooth="yes"/>
			<point x="59" y="-84"/>
			<point x="36" y="-111"/>
			<point x="3" y="-111" type="curve"/>
			<point x="-18" y="-111"/>
			<point x="-45" y="-106"/>
			<point x="-61" y="-100" type="curve"/>
			<point x="-73" y="-162" type="line"/>
			<point x="-53" y="-171"/>
			<point x="-20" y="-178"/>
		</contour>
	</outline>
</glyph>
<glyph name="circumflex" format="2">
	<advance width="334"/>
	<unicode hex="02C6"/>
	<anchor x="166" y="704" name="top"/>
	<anchor x="166" y="517" name="_top"/>
	<outline>
		<contour>
			<point x="131" y="713" type="line"/>
			<point x="31" y="576" type="line"/>
			<point x="88" y="576" type="line"/>
			<point x="166" y="662" type="line"/>
			<point x="245" y="576" type="line"/>
			<point x="303" y="576" type="line"/>
			<point x="201" y="713" type="line"/>
		</contour>
	</outline>
</glyph>
<glyph name="breve" format="2">
	<advance width="354"/>
	<unicode hex="02D8"/>
	<anchor x="177" y="704" name="top"/>
	<anchor x="177" y="517" name="_top"/>
	<outline>
		<contour>
			<point x="177" y="589" type="curve"/>
			<point x="177" y="589" type="line"/>
			<point x="230" y="589"/>
			<point x="283" y="609"/>
			<point x="323" y="649" type="curve"/>
			<point x="276" y="696" type="line"/>
			<point x="249" y="670"/>
			<point x="212" y="654"/>
			<point x="177" y="654" type="curve"/>
			<point x="142" y="654"/>
			<point x="105" y="670"/>
			<point x="78" y="696" type="curve"/>
			<point x="31" y="649" type="line"/>
			<point x="72" y="609"/>
			<point x="124" y="589"/>
		</contour>
	</outline>
</glyph>
<glyph name="dotaccent" format="2">
	<advance width="170"/>
	<unicode hex="02D9"/>
	<anchor x="85" y="704" name="top"/>
	<anchor x="85" y="0" name="bottom"/>
	<anchor x="85" y="517" name="_top"/>
	<outline>
		<contour>
			<point x="85" y="597" type="curve"/>
			<point x="85" y="597" type="line"/>
			<point x="110" y="597"/>
			<point x="131" y="618"/>
			<point x="131" y="643" type="curve"/>
			<point x="131" y="667"/>
			<point x="110" y="689"/>
			<point x="85" y="689" type="curve"/>
			<point x="59" y="689"/>
			<point x="39" y="667"/>
			<point x="39" y="643" type="curve"/>
			<point x="39" y="618"/>
			<point x="59" y="597"/>
		</contour>
	</outline>
</glyph>
<glyph name="ogonek" format="2">
	<advance width="262"/>
	<unicode hex="02DB"/>
	<anchor x="153" y="0" name="_bottom"/>
	<outline>
		<contour>
			<point x="148" y="-173" type="curve"/>
			<point x="148" y="-173" type="line"/>
			<point x="180" y="-173"/>
			<point x="209" y="-163"/>
			<point x="232" y="-144" type="curve"/>
			<point x="200" y="-95" type="line"/>
			<point x="190" y="-106"/>
			<point x="174" y="-114"/>
			<point x="153" y="-114" type="curve"/>
			<point x="116" y="-114"/>
			<point x="95" y="-92"/>
			<point x="95" y="-57" type="curve"/>
			<point x="95" y="-24"/>
			<point x="119" y="0"/>
			<point x="153" y="0" type="curve"/>
			<point x="92" y="19" type="line"/>
			<point x="63" y="7"/>
			<point x="39" y="-27"/>
			<point x="39" y="-66" type="curve"/>
			<point x="39" y="-133"/>
			<point x="84" y="-173"/>
		</contour>
	</outline>
</glyph>
<glyph name="tilde" format="2">
	<advance width="396"/>
	<unicode hex="02DC"/>
	<anchor x="198" y="704" name="top"/>
	<anchor x="198" y="517" name="_top"/>
	<outline>
		<contour>
			<point x="262" y="575" type="curve"/>
			<point x="262" y="575" type="line"/>
			<point x="317" y="575"/>
			<point x="348" y="618"/>
			<point x="358" y="694" type="curve"/>
			<point x="312" y="701" type="line"/>
			<point x="304" y="653"/>
			<point x="288" y="633"/>
			<point x="262" y="633" type="curve"/>
			<point x="221" y="633"/>
			<point x="192" y="699"/>
			<point x="133" y="699" type="curve"/>
			<point x="78" y="699"/>
			<point x="47" y="656"/>
			<point x="37" y="580" type="curve"/>
			<point x="83" y="573" type="line"/>
			<point x="91" y="621"/>
			<point x="107" y="641"/>
			<point x="133" y="641" type="curve"/>
			<point x="174" y="641"/>
			<point x="203" y="575"/>
		</contour>
	</outline>
</glyph>
<glyph name="hungarumlaut" format="2">
	<advance width="461"/>
	<unicode hex="02DD"/>
	<anchor x="162" y="704" name="top"/>
	<anchor x="162" y="517" name="_top"/>
	<outline>
		<contour>
			<point x="152" y="720" type="line"/>
			<point x="31" y="575" type="line"/>
			<point x="89" y="575" type="line"/>
			<point x="231" y="702" type="line"/>
		</contour>
		<contour>
			<point x="352" y="718" type="line"/>
			<point x="231" y="575" type="line"/>
			<point x="289" y="575" type="line"/>
			<point x="431" y="700" type="line"/>
		</contour>
	</outline>
</glyph>
<glyph name="commaaccentcomb" format="2">
	<advance width="0"/>
	<unicode hex="0326"/>
	<anchor x="-90" y="0" name="_bottom"/>
	<anchor x="-90" y="517" name="_top"/>
	<outline>
		<contour>
			<point x="-135" y="-252" type="curve"/>
			<point x="-103" y="-275" type="line"/>
			<point x="-53" y="-211"/>
			<point x="-38" y="-183"/>
			<point x="-38" y="-150" type="curve"/>
			<point x="-38" y="-110"/>
			<point x="-58" y="-82"/>
			<point x="-90" y="-82" type="curve"/>
			<point x="-116" y="-82"/>
			<point x="-136" y="-103"/>
			<point x="-136" y="-127" type="curve"/>
			<point x="-136" y="-152"/>
			<point x="-116" y="-173"/>
			<point x="-91" y="-173" type="curve"/>
			<point x="-97" y="-200"/>
			<point x="-112" y="-226"/>
		</contour>
	</outline>
</glyph>
<glyph name="endash" format="2">
	<advance width="561"/>
	<unicode hex="2013"/>
	<outline>
		<contour>
			<point x="48" y="307" type="line"/>
			<point x="48" y="236" type="line"/>
			<point x="513" y="236" type="line"/>
			<point x="513" y="307" type="line"/>
		</contour>
	</outline>
</glyph>
<glyph name="bullet" format="2">
	<advance width="353"/>
	<unicode hex="2022"/>
	<outline>
		<contour>
			<point x="177" y="178" type="curve"/>
			<point x="177" y="178" type="line"/>
			<point x="242" y="178"/>
			<point x="296" y="232"/>
			<point x="296" y="298" type="curve"/>
			<point x="296" y="363"/>
			<point x="242" y="417"/>
			<point x="177" y="417" type="curve"/>
			<point x="111" y="417"/>
			<point x="57" y="363"/>
			<point x="57" y="298" type="curve"/>
			<point x="57" y="232"/>
			<point x="111" y="178"/>
		</contour>
	</outline>
</glyph>
<glyph name="guilsinglleft" format="2">
	<advance width="334"/>
	<unicode hex="2039"/>
	<outline>
		<contour>
			<point x="48" y="251" type="line"/>
			<point x="209" y="52" type="line"/>
			<point x="284" y="69" type="line"/>
			<point x="137" y="252" type="line"/>
			<point x="284" y="432" type="line"/>
			<point x="209" y="448" type="line"/>
		</contour>
	</outline>
</glyph>
<glyph name="guilsinglright" format="2">
	<advance width="334"/>
	<unicode hex="203A"/>
	<outline>
		<contour>
			<point x="50" y="69" type="line"/>
			<point x="125" y="52" type="line"/>
			<point x="286" y="251" type="line"/>
			<point x="125" y="448" type="line"/>
			<point x="50" y="432" type="line"/>
			<point x="197" y="252" type="line"/>
		</contour>
	</outline>
</glyph>
<glyph name="minus" format="2">
	<advance width="614"/>
	<unicode hex="2212"/>
	<outline>
		<contour>
			<point x="77" y="371" type="line"/>
			<point x="77" y="297" type="line"/>
			<point x="536" y="297" type="line"/>
			<point x="536" y="371" type="line"/>
		</contour>
	</outline>
</glyph>
<glyph name="_areas" format="2">
	<advance width="414"/>
	<outline>
		<contour>
			<point x="103" y="743" type="line"/>
			<point x="67" y="746" type="line"/>
			<point x="67" y="376" type="line"/>
			<point x="103" y="378" type="line"/>
			<point x="103" y="383" type="line"/>
			<point x="103" y="388" type="line"/>
			<point x="103" y="393" type="line"/>
			<point x="103" y="398" type="line"/>
			<point x="103" y="403" type="line"/>
			<point x="103" y="408" type="line"/>
			<point x="103" y="413" type="line"/>
			<point x="103" y="418" type="line"/>
			<point x="103" y="423" type="line"/>
			<point x="103" y="428" type="line"/>
			<point x="103" y="433" type="line"/>
			<point x="103" y="438" type="line"/>
			<point x="103" y="443" type="line"/>
			<point x="103" y="448" type="line"/>
			<point x="103" y="453" type="line"/>
			<point x="103" y="458" type="line"/>
			<point x="103" y="463" type="line"/>
			<point x="101" y="468" type="line"/>
			<point x="97" y="473" type="line"/>
			<point x="93" y="478" type="line"/>
			<point x="89" y="483" type="line"/>
			<point x="86" y="488" type="line"/>
			<point x="83" y="493" type="line"/>
			<point x="81" y="498" type="line"/>
			<point x="79" y="503" type="line"/>
			<point x="77" y="508" type="line"/>
			<point x="75" y="513" type="line"/>
			<point x="73" y="518" type="line"/>
			<point x="72" y="523" type="line"/>
			<point x="71" y="528" type="line"/>
			<point x="70" y="533" type="line"/>
			<point x="69" y="538" type="line"/>
			<point x="68" y="543" type="line"/>
			<point x="68" y="548" type="line"/>
			<point x="67" y="553" type="line"/>
			<point x="67" y="558" type="line"/>
			<point x="67" y="563" type="line"/>
			<point x="67" y="568" type="line"/>
			<point x="67" y="573" type="line"/>
			<point x="68" y="578" type="line"/>
			<point x="69" y="583" type="line"/>
			<point x="69" y="588" type="line"/>
			<point x="70" y="593" type="line"/>
			<point x="71" y="598" type="line"/>
			<point x="73" y="603" type="line"/>
			<point x="74" y="608" type="line"/>
			<point x="76" y="613" type="line"/>
			<point x="78" y="618" type="line"/>
			<point x="80" y="623" type="line"/>
			<point x="83" y="628" type="line"/>
			<point x="86" y="633" type="line"/>
			<point x="89" y="638" type="line"/>
			<point x="92" y="643" type="line"/>
			<point x="96" y="648" type="line"/>
			<point x="100" y="653" type="line"/>
			<point x="103" y="658" type="line"/>
			<point x="103" y="663" type="line"/>
			<point x="103" y="668" type="line"/>
			<point x="103" y="673" type="line"/>
			<point x="103" y="678" type="line"/>
			<point x="103" y="683" type="line"/>
			<point x="103" y="688" type="line"/>
			<point x="103" y="693" type="line"/>
			<point x="103" y="698" type="line"/>
			<point x="103" y="703" type="line"/>
			<point x="103" y="708" type="line"/>
			<point x="103" y="713" type="line"/>
			<point x="103" y="718" type="line"/>
			<point x="103" y="723" type="line"/>
			<point x="103" y="728" type="line"/>
			<point x="103" y="733" type="line"/>
			<point x="103" y="738" type="line"/>
		</contour>
		<contour>
			<point x="311" y="743" type="line"/>
			<point x="347" y="746" type="line"/>
			<point x="347" y="376" type="line"/>
			<point x="311" y="378" type="line"/>
			<point x="311" y="383" type="line"/>
			<point x="311" y="388" type="line"/>
			<point x="311" y="393" type="line"/>
			<point x="311" y="398" type="line"/>
			<point x="311" y="403" type="line"/>
			<point x="311" y="408" type="line"/>
			<point x="311" y="413" type="line"/>
			<point x="311" y="418" type="line"/>
			<point x="311" y="423" type="line"/>
			<point x="311" y="428" type="line"/>
			<point x="311" y="433" type="line"/>
			<point x="311" y="438" type="line"/>
			<point x="311" y="443" type="line"/>
			<point x="311" y="448" type="line"/>
			<point x="311" y="453" type="line"/>
			<point x="311" y="458" type="line"/>
			<point x="311" y="463" type="line"/>
			<point x="313" y="468" type="line"/>
			<point x="317" y="473" type="line"/>
			<point x="321" y="478" type="line"/>
			<point x="325" y="483" type="line"/>
			<point x="328" y="488" type="line"/>
			<point x="331" y="493" type="line"/>
			<point x="333" y="498" type="line"/>
			<point x="335" y="503" type="line"/>
			<point x="337" y="508" type="line"/>
			<point x="339" y="513" type="line"/>
			<point x="341" y="518" type="line"/>
			<point x="342" y="523" type="line"/>
			<point x="343" y="528" type="line"/>
			<point x="344" y="533" type="line"/>
			<point x="345" y="538" type="line"/>
			<point x="346" y="543" type="line"/>
			<point x="346" y="548" type="line"/>
			<point x="347" y="553" type="line"/>
			<point x="342" y="558" type="line"/>
			<point x="342" y="563" type="line"/>
			<point x="347" y="568" type="line"/>
			<point x="347" y="573" type="line"/>
			<point x="346" y="578" type="line"/>
			<point x="345" y="583" type="line"/>
			<point x="345" y="588" type="line"/>
			<point x="344" y="593" type="line"/>
			<point x="343" y="598" type="line"/>
			<point x="341" y="603" type="line"/>
			<point x="340" y="608" type="line"/>
			<point x="338" y="613" type="line"/>
			<point x="336" y="618" type="line"/>
			<point x="334" y="623" type="line"/>
			<point x="331" y="628" type="line"/>
			<point x="328" y="633" type="line"/>
			<point x="325" y="638" type="line"/>
			<point x="322" y="643" type="line"/>
			<point x="318" y="648" type="line"/>
			<point x="314" y="653" type="line"/>
			<point x="311" y="658" type="line"/>
			<point x="311" y="663" type="line"/>
			<point x="311" y="668" type="line"/>
			<point x="311" y="673" type="line"/>
			<point x="311" y="678" type="line"/>
			<point x="311" y="683" type="line"/>
			<point x="311" y="688" type="line"/>
			<point x="311" y="693" type="line"/>
			<point x="311" y="698" type="line"/>
			<point x="311" y="703" type="line"/>
			<point x="311" y="708" type="line"/>
			<point x="311" y="713" type="line"/>
			<point x="311" y="718" type="line"/>
			<point x="311" y="723" type="line"/>
			<point x="311" y="728" type="line"/>
			<point x="311" y="733" type="line"/>
			<point x="311" y="738" type="line"/>
		</contour>
	</outline>
</glyph>
<glyph name="a.alt" format="2">
	<advance width="595"/>
	<anchor x="301" y="517" name="top"/>
	<anchor x="538" y="0" name="bottom"/>
	<outline>
		<contour>
			<point x="463" y="517" type="line"/>
			<point x="463" y="0" type="line"/>
			<point x="538" y="0" type="line"/>
			<point x="538" y="517" type="line"/>
		</contour>
		<contour>
			<point x="275" y="-12" type="curve"/>
			<point x="275" y="-12" type="line"/>
			<point x="409" y="-12"/>
			<point x="502" y="99"/>
			<point x="502" y="259" type="curve"/>
			<point x="502" y="418"/>
			<point x="409" y="529"/>
			<point x="275" y="529" type="curve"/>
			<point x="135" y="529"/>
			<point x="37" y="418"/>
			<point x="37" y="259" type="curve"/>
			<point x="37" y="99"/>
			<point x="135" y="-12"/>
		</contour>
		<contour>
			<point x="289" y="55" type="curve"/>
			<point x="289" y="55" type="line"/>
			<point x="187" y="55"/>
			<point x="116" y="139"/>
			<point x="116" y="259" type="curve"/>
			<point x="116" y="378"/>
			<point x="186" y="462"/>
			<point x="289" y="462" type="curve"/>
			<point x="391" y="462"/>
			<point x="463" y="378"/>
			<point x="463" y="259" type="curve"/>
			<point x="463" y="139"/>
			<point x="391" y="55"/>
		</contour>
	</outline>
</glyph>
<glyph name="ascender" format="2">
	<advance width="249"/>
	<anchor x="162" y="259" name="loop_right"/>
	<anchor x="87" y="259" name="loop_left"/>
	<anchor x="162" y="329" name="shoulder"/>
	<anchor x="151" y="126" name="k_arms"/>
	<outline>
		<contour>
			<point x="87" y="699" type="line"/>
			<point x="87" y="0" type="line"/>
			<point x="162" y="0" type="line"/>
			<point x="162" y="699" type="line"/>
		</contour>
	</outline>
</glyph>
<glyph name="capital_V" format="2">
	<advance width="741"/>
	<outline>
		<contour>
			<point x="631" y="687" type="line"/>
			<point x="328" y="0" type="line"/>
			<point x="413" y="0" type="line"/>
			<point x="716" y="687" type="line"/>
		</contour>
		<contour>
			<point x="25" y="687" type="line"/>
			<point x="328" y="0" type="line"/>
			<point x="413" y="0" type="line"/>
			<point x="110" y="687" type="line"/>
		</contour>
	</outline>
</glyph>
<glyph name="descender" format="2">
	<advance width="249"/>
	<anchor x="87" y="259" name="loop_left"/>
	<anchor x="162" y="259" name="loop_right"/>
	<outline>
		<contour>
			<point x="87" y="517" type="line"/>
			<point x="87" y="-172" type="line"/>
			<point x="162" y="-172" type="line"/>
			<point x="162" y="517" type="line"/>
		</contour>
	</outline>
</glyph>
